<?xml version="1.0" encoding="iso-8859-1"?>
<!-- Generator: Adobe Illustrator 18.0.0, SVG Export Plug-In . SVG Version: 6.00 Build 0)  -->
<!DOCTYPE svg PUBLIC "-//W3C//DTD SVG 1.1//EN" "http://www.w3.org/Graphics/SVG/1.1/DTD/svg11.dtd">
<svg version="1.1" id="Capa_1" xmlns="http://www.w3.org/2000/svg" xmlns:xlink="http://www.w3.org/1999/xlink" x="0px" y="0px"
	 viewBox="0 0 282.96 282.96" style="enable-background:new 0 0 282.96 282.96;" xml:space="preserve">
<path style="fill:#231F20;" d="M275.46,123.98H63.891l45.126-45.126c1.407-1.406,2.197-3.314,2.197-5.303
	c0-1.989-0.79-3.897-2.197-5.303L94.874,54.105c-1.406-1.407-3.314-2.197-5.303-2.197c-1.989,0-3.897,0.79-5.303,2.197
	L2.197,136.177C0.79,137.583,0,139.491,0,141.48c0,1.989,0.79,3.897,2.197,5.303l82.072,82.071c1.407,1.407,3.314,2.197,5.303,2.197
	c1.989,0,3.897-0.79,5.304-2.197l14.142-14.143c2.929-2.929,2.928-7.678-0.001-10.606L63.891,158.98H275.46
	c4.142,0,7.5-3.358,7.5-7.5v-20C282.96,127.338,279.602,123.98,275.46,123.98z"/>
<g>
</g>
<g>
</g>
<g>
</g>
<g>
</g>
<g>
</g>
<g>
</g>
<g>
</g>
<g>
</g>
<g>
</g>
<g>
</g>
<g>
</g>
<g>
</g>
<g>
</g>
<g>
</g>
<g>
</g>
</svg>
